<?xml version="1.0" encoding="utf-8"?>
<!-- Generator: Adobe Illustrator 27.5.0, SVG Export Plug-In . SVG Version: 6.00 Build 0)  -->
<svg version="1.1" xmlns="http://www.w3.org/2000/svg" xmlns:xlink="http://www.w3.org/1999/xlink" x="0px" y="0px"
	 viewBox="0 0 500 500" style="enable-background:new 0 0 500 500;" xml:space="preserve">
<g id="BACKGROUND" style="display:none;">
</g>
<g id="OBJECTS">
	<g>
		<g>
			<g>
				
					<line style="fill:none;stroke:#B8D1FB;stroke-width:3.8861;stroke-linecap:round;stroke-linejoin:round;stroke-miterlimit:10;" x1="443.997" y1="72.494" x2="443.997" y2="79.481"/>
				
					<line style="fill:none;stroke:#B8D1FB;stroke-width:3.8861;stroke-linecap:round;stroke-linejoin:round;stroke-miterlimit:10;" x1="440.504" y1="75.988" x2="447.491" y2="75.988"/>
			</g>
			<g>
				
					<line style="fill:none;stroke:#B8D1FB;stroke-width:3.8861;stroke-linecap:round;stroke-linejoin:round;stroke-miterlimit:10;" x1="385.556" y1="62.164" x2="385.556" y2="72.979"/>
				
					<line style="fill:none;stroke:#B8D1FB;stroke-width:3.8861;stroke-linecap:round;stroke-linejoin:round;stroke-miterlimit:10;" x1="380.149" y1="67.572" x2="390.964" y2="67.572"/>
			</g>
			<g>
				
					<line style="fill:none;stroke:#B8D1FB;stroke-width:3.8861;stroke-linecap:round;stroke-linejoin:round;stroke-miterlimit:10;" x1="438.093" y1="133.37" x2="438.093" y2="139.073"/>
				
					<line style="fill:none;stroke:#B8D1FB;stroke-width:3.8861;stroke-linecap:round;stroke-linejoin:round;stroke-miterlimit:10;" x1="435.241" y1="136.222" x2="440.944" y2="136.222"/>
			</g>
			
				<path style="fill:none;stroke:#B8D1FB;stroke-width:3.8861;stroke-linecap:round;stroke-linejoin:round;stroke-miterlimit:10;" d="
				M420.438,94.59c0,5.431,4.403,9.834,9.834,9.834c5.431,0,9.834-4.403,9.834-9.834c0-5.431-4.403-9.834-9.834-9.834
				C424.84,84.756,420.438,89.159,420.438,94.59z"/>
			<g>
				
					<line style="fill:none;stroke:#B8D1FB;stroke-width:3.8861;stroke-linecap:round;stroke-linejoin:round;stroke-miterlimit:10;" x1="462.102" y1="178.311" x2="462.102" y2="169.552"/>
				
					<line style="fill:none;stroke:#B8D1FB;stroke-width:3.8861;stroke-linecap:round;stroke-linejoin:round;stroke-miterlimit:10;" x1="466.482" y1="173.932" x2="457.722" y2="173.932"/>
			</g>
			<g>
				
					<line style="fill:none;stroke:#B8D1FB;stroke-width:3.8861;stroke-linecap:round;stroke-linejoin:round;stroke-miterlimit:10;" x1="410.573" y1="162.469" x2="410.573" y2="153.709"/>
				
					<line style="fill:none;stroke:#B8D1FB;stroke-width:3.8861;stroke-linecap:round;stroke-linejoin:round;stroke-miterlimit:10;" x1="414.953" y1="158.089" x2="406.193" y2="158.089"/>
			</g>
			
				<ellipse transform="matrix(0.7071 -0.7071 0.7071 0.7071 -9.768 365.9685)" style="fill:none;stroke:#B8D1FB;stroke-width:3.8861;stroke-linecap:round;stroke-linejoin:round;stroke-miterlimit:10;" cx="436.879" cy="194.775" rx="7.965" ry="7.965"/>
		</g>
		<g>
			<g>
				
					<line style="fill:none;stroke:#B8D1FB;stroke-width:3.8861;stroke-linecap:round;stroke-linejoin:round;stroke-miterlimit:10;" x1="51.496" y1="334.243" x2="51.496" y2="349.974"/>
				
					<line style="fill:none;stroke:#B8D1FB;stroke-width:3.8861;stroke-linecap:round;stroke-linejoin:round;stroke-miterlimit:10;" x1="43.631" y1="342.109" x2="59.362" y2="342.109"/>
			</g>
			<g>
				
					<line style="fill:none;stroke:#B8D1FB;stroke-width:3.8861;stroke-linecap:round;stroke-linejoin:round;stroke-miterlimit:10;" x1="72.981" y1="398.052" x2="72.981" y2="408.866"/>
				
					<line style="fill:none;stroke:#B8D1FB;stroke-width:3.8861;stroke-linecap:round;stroke-linejoin:round;stroke-miterlimit:10;" x1="67.573" y1="403.459" x2="78.388" y2="403.459"/>
			</g>
			
				<path style="fill:none;stroke:#B8D1FB;stroke-width:3.8861;stroke-linecap:round;stroke-linejoin:round;stroke-miterlimit:10;" d="
				M50.846,390.029c0-4.399-3.566-7.965-7.965-7.965c-4.399,0-7.965,3.566-7.965,7.965c0,4.399,3.566,7.965,7.965,7.965
				C47.28,397.994,50.846,394.428,50.846,390.029z"/>
			
				<path style="fill:none;stroke:#B8D1FB;stroke-width:3.8861;stroke-linecap:round;stroke-linejoin:round;stroke-miterlimit:10;" d="
				M51.624,416.26c0-1.925-1.56-3.485-3.485-3.485c-1.925,0-3.485,1.56-3.485,3.485c0,1.925,1.56,3.485,3.485,3.485
				C50.064,419.745,51.624,418.185,51.624,416.26z"/>
		</g>
		<g>
			<g>
				
					<line style="fill:none;stroke:#B8D1FB;stroke-width:3.8861;stroke-linecap:round;stroke-linejoin:round;stroke-miterlimit:10;" x1="158.632" y1="207.226" x2="158.632" y2="214.213"/>
				
					<line style="fill:none;stroke:#B8D1FB;stroke-width:3.8861;stroke-linecap:round;stroke-linejoin:round;stroke-miterlimit:10;" x1="155.138" y1="210.72" x2="162.125" y2="210.72"/>
			</g>
			<g>
				
					<line style="fill:none;stroke:#B8D1FB;stroke-width:3.8861;stroke-linecap:round;stroke-linejoin:round;stroke-miterlimit:10;" x1="71.319" y1="189.335" x2="71.319" y2="200.149"/>
				
					<line style="fill:none;stroke:#B8D1FB;stroke-width:3.8861;stroke-linecap:round;stroke-linejoin:round;stroke-miterlimit:10;" x1="65.912" y1="194.742" x2="76.727" y2="194.742"/>
			</g>
			<g>
				
					<line style="fill:none;stroke:#B8D1FB;stroke-width:3.8861;stroke-linecap:round;stroke-linejoin:round;stroke-miterlimit:10;" x1="67.904" y1="90.435" x2="67.904" y2="101.25"/>
				
					<line style="fill:none;stroke:#B8D1FB;stroke-width:3.8861;stroke-linecap:round;stroke-linejoin:round;stroke-miterlimit:10;" x1="62.497" y1="95.843" x2="73.312" y2="95.843"/>
			</g>
			
				<ellipse transform="matrix(0.974 -0.2265 0.2265 0.974 -35.1523 17.5)" style="fill:none;stroke:#B8D1FB;stroke-width:3.8861;stroke-linecap:round;stroke-linejoin:round;stroke-miterlimit:10;" cx="58.698" cy="161.962" rx="9.834" ry="9.834"/>
			
				<path style="fill:none;stroke:#B8D1FB;stroke-width:3.8861;stroke-linecap:round;stroke-linejoin:round;stroke-miterlimit:10;" d="
				M89.211,70.109c0,5.431,4.403,9.834,9.834,9.834c5.431,0,9.834-4.403,9.834-9.834s-4.403-9.834-9.834-9.834
				C93.614,60.275,89.211,64.678,89.211,70.109z"/>
			
				<path style="fill:none;stroke:#B8D1FB;stroke-width:3.8861;stroke-linecap:round;stroke-linejoin:round;stroke-miterlimit:10;" d="
				M169.592,232.212c0,5.431,4.403,9.834,9.834,9.834c5.431,0,9.834-4.403,9.834-9.834c0-5.431-4.403-9.834-9.834-9.834
				C173.995,222.378,169.592,226.781,169.592,232.212z"/>
			
				<path style="fill:none;stroke:#B8D1FB;stroke-width:3.8861;stroke-linecap:round;stroke-linejoin:round;stroke-miterlimit:10;" d="
				M120.352,84.86c0,2.376,1.926,4.302,4.302,4.302c2.376,0,4.303-1.926,4.303-4.302s-1.926-4.302-4.303-4.302
				C122.278,80.557,120.352,82.484,120.352,84.86z"/>
			
				<path style="fill:none;stroke:#B8D1FB;stroke-width:3.8861;stroke-linecap:round;stroke-linejoin:round;stroke-miterlimit:10;" d="
				M92.56,145.605c0-1.925-1.56-3.485-3.485-3.485c-1.925,0-3.485,1.56-3.485,3.485c0,1.925,1.56,3.485,3.485,3.485
				C90.999,149.09,92.56,147.53,92.56,145.605z"/>
			
				<path style="fill:none;stroke:#B8D1FB;stroke-width:3.8861;stroke-linecap:round;stroke-linejoin:round;stroke-miterlimit:10;" d="
				M172.626,58.569c0-1.925-1.56-3.485-3.485-3.485c-1.925,0-3.485,1.56-3.485,3.485c0,1.925,1.56,3.485,3.485,3.485
				C171.065,62.054,172.626,60.494,172.626,58.569z"/>
		</g>
	</g>
	<g>
		<g>
			<path style="fill:#4145F1;" d="M356.214,123.107c0.17-2.059,0.278-4.134,0.278-6.237c0-41.419-33.577-74.996-74.996-74.996
				c-35.281,0-64.855,24.369-72.851,57.188c-6.784-6.816-15.989-11.014-26.137-11.014c-19.293,0-35.194,15.147-37.466,34.695
				c-19.208,1.751-34.256,17.893-34.256,37.557c0,20.833,16.889,37.722,37.722,37.722h201.435c20.833,0,37.722-16.889,37.722-37.722
				C387.665,141.605,374.061,126.095,356.214,123.107z"/>
			<g>
				<path style="opacity:0.2;fill:#000042;" d="M349.943,187.415H148.508c-19.04,0-34.777-14.109-37.346-32.441
					c-0.246,1.741-0.376,3.519-0.376,5.327c0,20.833,16.889,37.722,37.722,37.722h201.435c20.833,0,37.722-16.889,37.722-37.722
					c0-1.807-0.13-3.584-0.376-5.324C384.718,173.307,368.982,187.415,349.943,187.415z"/>
			</g>
		</g>
		<rect x="130.592" y="113.531" style="fill:none;" width="235.448" height="67.387"/>
		<text transform="matrix(1 0 0 1 156.4308 140.0803)"><tspan x="0" y="0" style="fill:#FFFFFF; font-family:'Montserrat-Black'; font-size:35.7811px;">WEBSITE</tspan><tspan x="1.79" y="34.101" style="fill:#FFFFFF; font-family:'Montserrat-Black'; font-size:35.7811px;">HOSTING</tspan></text>
	</g>
	<g>
		<g>
			<g>
				<g>
					<rect x="326.258" y="219.879" style="fill:#4145F1;" width="16.848" height="12.636"/>
					<rect x="397.861" y="219.879" style="fill:#4145F1;" width="16.848" height="12.636"/>
				</g>
				<g>
					<rect x="316.197" y="210.52" style="fill:#81B5FC;" width="108.573" height="15.444"/>
					<g>
						<rect x="353.753" y="215.667" style="fill:#4145F1;" width="60.956" height="4.212"/>
						<g>
							<path style="fill:#FFFFFF;" d="M340.883,217.305c0,1.292,1.048,2.34,2.34,2.34c1.292,0,2.34-1.048,2.34-2.34
								c0-1.292-1.048-2.34-2.34-2.34C341.931,214.965,340.883,216.012,340.883,217.305z"/>
							<path style="fill:#FFFFFF;" d="M332.927,217.305c0,1.292,1.048,2.34,2.34,2.34c1.292,0,2.34-1.048,2.34-2.34
								c0-1.292-1.048-2.34-2.34-2.34C333.975,214.965,332.927,216.012,332.927,217.305z"/>
							<path style="fill:#FFFFFF;" d="M324.971,217.305c0,1.292,1.048,2.34,2.34,2.34c1.292,0,2.34-1.048,2.34-2.34
								c0-1.292-1.048-2.34-2.34-2.34C326.019,214.965,324.971,216.012,324.971,217.305z"/>
						</g>
					</g>
				</g>
			</g>
			<g>
				<g>
					
						<path style="fill:none;stroke:#06007B;stroke-width:1.872;stroke-linecap:round;stroke-linejoin:round;stroke-miterlimit:10;" d="
						M288.389,449.818h151.004c15.508,0,28.079-12.572,28.079-28.079V270.734c0-15.508-12.572-28.079-28.079-28.079"/>
					
						<path style="fill:none;stroke:#06007B;stroke-width:1.872;stroke-linecap:round;stroke-linejoin:round;stroke-miterlimit:10;" d="
						M467.473,325.645c0-15.508-12.572-28.079-28.079-28.079"/>
					
						<path style="fill:none;stroke:#06007B;stroke-width:1.872;stroke-linecap:round;stroke-linejoin:round;stroke-miterlimit:10;" d="
						M467.473,380.243c0-15.508-12.572-28.079-28.079-28.079"/>
					
						<path style="fill:none;stroke:#06007B;stroke-width:1.9381;stroke-linecap:round;stroke-linejoin:round;stroke-miterlimit:10;" d="
						M440.319,406.45c10.347,0,18.735,8.388,18.735,18.735l-0.006,2.26c0,10.347-8.388,18.735-18.735,18.735H307.426"/>
				</g>
				<g>
					<g>
						<g>
							<g>
								<path style="fill:#06007B;" d="M425.076,242.11c0,3.708,3.006,6.714,6.714,6.714h4.029c3.708,0,6.714-3.006,6.714-6.714l0,0
									c0-3.708-3.006-6.714-6.714-6.714h-4.029C428.082,235.396,425.076,238.402,425.076,242.11L425.076,242.11z"/>
								<g>
									<rect x="311.369" y="274.056" style="fill:#06007B;" width="22.157" height="11.696"/>
									<rect x="396.037" y="274.056" style="fill:#06007B;" width="22.157" height="11.696"/>
								</g>
							</g>
							<g>
								<g>
									<path style="fill:#81B5FC;" d="M436.658,271.653c0,3.708-3.006,6.714-6.714,6.714H299.619
										c-3.708,0-6.714-3.006-6.714-6.714v-35.585c0-3.708,3.006-6.714,6.714-6.714h130.324c3.708,0,6.714,3.006,6.714,6.714
										V271.653z"/>
									<path style="opacity:0.2;fill:#06007B;" d="M429.944,268.967H299.619c-3.708,0-6.714-3.006-6.714-6.714v9.4
										c0,3.708,3.006,6.714,6.714,6.714h130.324c3.708,0,6.714-3.006,6.714-6.714v-9.4
										C436.658,265.961,433.652,268.967,429.944,268.967z"/>
								</g>
								<g>
									<g>
										<rect x="300.291" y="237.41" style="fill:#FFFFFF;" width="42.3" height="23.5"/>
										<rect x="349.305" y="237.41" style="fill:#FFFFFF;" width="79.296" height="23.5"/>
									</g>
									<g>
										<rect x="368.509" y="241.439" style="fill:#FF4435;" width="15.193" height="5.371"/>
										<rect x="407.576" y="241.439" style="fill:#FF4435;" width="15.193" height="5.371"/>
										<rect x="387.893" y="241.439" style="fill:#81B5FC;" width="15.194" height="5.371"/>
									</g>
								</g>
							</g>
						</g>
					</g>
					<g>
						<g>
							<g>
								<path style="fill:#06007B;" d="M425.076,297.221c0,3.708,3.006,6.714,6.714,6.714h4.029c3.708,0,6.714-3.006,6.714-6.714
									l0,0c0-3.708-3.006-6.714-6.714-6.714h-4.029C428.082,290.507,425.076,293.513,425.076,297.221L425.076,297.221z"/>
								<g>
									<rect x="311.369" y="329.167" style="fill:#06007B;" width="22.157" height="11.696"/>
									<rect x="396.037" y="329.167" style="fill:#06007B;" width="22.157" height="11.696"/>
								</g>
							</g>
							<g>
								<g>
									<path style="fill:#81B5FC;" d="M436.658,326.764c0,3.708-3.006,6.714-6.714,6.714H299.619
										c-3.708,0-6.714-3.006-6.714-6.714v-35.585c0-3.708,3.006-6.714,6.714-6.714h130.324c3.708,0,6.714,3.006,6.714,6.714
										V326.764z"/>
									<path style="opacity:0.2;fill:#06007B;" d="M429.944,324.078H299.619c-3.708,0-6.714-3.006-6.714-6.714v9.4
										c0,3.708,3.006,6.714,6.714,6.714h130.324c3.708,0,6.714-3.006,6.714-6.714v-9.4
										C436.658,321.072,433.652,324.078,429.944,324.078z"/>
								</g>
								<g>
									<g>
										<rect x="300.291" y="292.521" style="fill:#FFFFFF;" width="42.3" height="23.5"/>
										<rect x="349.305" y="292.521" style="fill:#FFFFFF;" width="79.296" height="23.5"/>
									</g>
									<g>
										<rect x="368.509" y="296.55" style="fill:#FF4435;" width="15.193" height="5.371"/>
										<rect x="407.576" y="296.55" style="fill:#FF4435;" width="15.193" height="5.371"/>
										<rect x="387.893" y="296.55" style="fill:#81B5FC;" width="15.194" height="5.371"/>
									</g>
								</g>
							</g>
						</g>
					</g>
					<g>
						<g>
							<g>
								<path style="fill:#06007B;" d="M425.076,352.332c0,3.708,3.006,6.714,6.714,6.714h4.029c3.708,0,6.714-3.006,6.714-6.714
									l0,0c0-3.708-3.006-6.714-6.714-6.714h-4.029C428.082,345.618,425.076,348.624,425.076,352.332L425.076,352.332z"/>
								<g>
									<rect x="311.369" y="384.278" style="fill:#06007B;" width="22.157" height="11.696"/>
									<rect x="396.037" y="384.278" style="fill:#06007B;" width="22.157" height="11.696"/>
								</g>
							</g>
							<g>
								<g>
									<path style="fill:#81B5FC;" d="M436.658,381.875c0,3.708-3.006,6.714-6.714,6.714H299.619
										c-3.708,0-6.714-3.006-6.714-6.714v-35.585c0-3.708,3.006-6.714,6.714-6.714h130.324c3.708,0,6.714,3.006,6.714,6.714
										V381.875z"/>
									<path style="opacity:0.2;fill:#06007B;" d="M429.944,379.189H299.619c-3.708,0-6.714-3.006-6.714-6.714v9.4
										c0,3.708,3.006,6.714,6.714,6.714h130.324c3.708,0,6.714-3.006,6.714-6.714v-9.4
										C436.658,376.183,433.652,379.189,429.944,379.189z"/>
								</g>
								<g>
									<g>
										<rect x="300.291" y="347.632" style="fill:#FFFFFF;" width="42.3" height="23.5"/>
										<rect x="349.305" y="347.632" style="fill:#FFFFFF;" width="79.296" height="23.5"/>
									</g>
									<g>
										<rect x="368.509" y="351.661" style="fill:#FF4435;" width="15.193" height="5.371"/>
										<rect x="407.576" y="351.661" style="fill:#FF4435;" width="15.193" height="5.371"/>
										<rect x="387.893" y="351.661" style="fill:#81B5FC;" width="15.194" height="5.371"/>
									</g>
								</g>
							</g>
						</g>
					</g>
					<g>
						<g>
							<g>
								<path style="fill:#06007B;" d="M425.076,407.443c0,3.708,3.006,6.714,6.714,6.714h4.029c3.708,0,6.714-3.006,6.714-6.714
									l0,0c0-3.708-3.006-6.714-6.714-6.714h-4.029C428.082,400.729,425.076,403.735,425.076,407.443L425.076,407.443z"/>
								<g>
									<rect x="311.369" y="439.389" style="fill:#06007B;" width="22.157" height="11.696"/>
									<rect x="396.037" y="439.389" style="fill:#06007B;" width="22.157" height="11.696"/>
								</g>
							</g>
							<g>
								<g>
									<path style="fill:#81B5FC;" d="M436.658,436.986c0,3.708-3.006,6.714-6.714,6.714H299.619
										c-3.708,0-6.714-3.006-6.714-6.714V401.4c0-3.708,3.006-6.714,6.714-6.714h130.324c3.708,0,6.714,3.006,6.714,6.714
										V436.986z"/>
									<path style="opacity:0.2;fill:#06007B;" d="M429.944,434.3H299.619c-3.708,0-6.714-3.006-6.714-6.714v9.4
										c0,3.708,3.006,6.714,6.714,6.714h130.324c3.708,0,6.714-3.006,6.714-6.714v-9.4
										C436.658,431.294,433.652,434.3,429.944,434.3z"/>
								</g>
								<g>
									<g>
										<rect x="300.291" y="402.743" style="fill:#FFFFFF;" width="42.3" height="23.5"/>
										<rect x="349.305" y="402.743" style="fill:#FFFFFF;" width="79.296" height="23.5"/>
									</g>
									<g>
										<rect x="368.509" y="406.772" style="fill:#FF4435;" width="15.193" height="5.371"/>
										<rect x="407.576" y="406.772" style="fill:#FF4435;" width="15.193" height="5.371"/>
										<rect x="387.893" y="406.772" style="fill:#81B5FC;" width="15.194" height="5.371"/>
									</g>
								</g>
							</g>
						</g>
					</g>
				</g>
			</g>
		</g>
		<g>
			<g>
				<rect x="264.473" y="204.499" style="fill:#81B5FC;" width="16.913" height="84.562"/>
				<polygon style="fill:#81B5FC;" points="251.565,219.533 272.929,182.529 294.293,219.533 				"/>
			</g>
			<g>
				<g>
					<rect x="174.439" y="298.417" style="fill:#06007B;" width="76.217" height="143.773"/>
					<rect x="91.672" y="439.429" style="fill:#4145F1;" width="241.751" height="11.797"/>
				</g>
				<g>
					<path style="fill:#FFFFFF;" d="M333.282,404.812c0,5.169-4.19,9.36-9.36,9.36H101.172c-5.169,0-9.36-4.191-9.36-9.36v-128.69
						c0-5.169,4.19-9.36,9.36-9.36h222.751c5.169,0,9.36,4.19,9.36,9.36V404.812z"/>
					<path style="fill:#4145F1;" d="M323.922,417.448h-222.75c-6.967,0-12.636-5.669-12.636-12.636V276.122
						c0-6.968,5.668-12.637,12.636-12.637h222.75c6.967,0,12.636,5.669,12.636,12.637v128.689
						C336.558,411.779,330.889,417.448,323.922,417.448z M101.172,270.038c-3.354,0-6.084,2.73-6.084,6.084v128.689
						c0,3.354,2.729,6.083,6.084,6.083h222.75c3.355,0,6.083-2.729,6.083-6.083V276.122c0-3.354-2.728-6.084-6.083-6.084H101.172z"
						/>
				</g>
			</g>
			<g>
				<rect x="213.04" y="182.529" style="fill:#81B5FC;" width="16.912" height="84.562"/>
				<polygon style="fill:#81B5FC;" points="242.861,252.057 221.496,289.062 200.132,252.057 				"/>
			</g>
		</g>
		<g>
			<g>
				<g>
					<path style="opacity:0.2;fill:#000042;" d="M141.707,249.651c-0.143-1.639-1.166-3.072-2.672-3.738l-46.942-20.752
						c-0.378-0.167-0.775-0.26-1.175-0.318c-0.074-0.01-0.146-0.016-0.221-0.023c-0.762-0.073-1.537,0.025-2.253,0.341
						l-46.941,20.752c-1.506,0.666-2.53,2.099-2.673,3.738C33.09,315.387,86.2,338.26,86.738,338.484
						c0.549,0.227,1.138,0.345,1.733,0.345h1.039h2.554c0.594,0,1.183-0.118,1.733-0.345
						C94.336,338.26,147.448,315.387,141.707,249.651z"/>
					<g>
						<g>
							<path style="fill:#FFB1A4;" d="M131.163,245.34l-46.942-20.753L37.279,245.34c-5.518,63.204,45.145,84.272,45.145,84.272
								h3.593C86.018,329.612,136.681,308.544,131.163,245.34z"/>
							<path style="fill:#FF4435;" d="M86.018,334.125h-3.594c-0.594,0-1.183-0.118-1.733-0.345
								c-0.538-0.223-53.648-23.096-47.909-88.832c0.143-1.639,1.167-3.072,2.673-3.738l46.941-20.752
								c1.163-0.514,2.487-0.514,3.65,0l46.941,20.752c1.506,0.666,2.53,2.099,2.673,3.738
								c5.741,65.736-47.371,88.609-47.909,88.832C87.201,334.007,86.612,334.125,86.018,334.125z M83.383,325.097h1.677
								c6.274-2.911,45.179-23.185,41.805-76.72l-42.643-18.853l-42.643,18.853C38.206,301.912,77.109,322.186,83.383,325.097z"/>
						</g>
						<path style="opacity:0.1;fill:#000042;" d="M135.66,244.948c-0.143-1.639-1.166-3.072-2.673-3.738l-46.941-20.752
							c-0.819-0.362-1.716-0.455-2.583-0.307v113.974h2.555c0.594,0,1.183-0.118,1.733-0.345
							C88.289,333.557,141.401,310.684,135.66,244.948z"/>
					</g>
				</g>
				<g>
					
						<ellipse transform="matrix(0.9738 -0.2273 0.2273 0.9738 -60.3786 26.562)" style="fill:#FF4435;" cx="85.16" cy="275.484" rx="25.585" ry="25.585"/>
					<g>
						<polygon style="fill:#FFFFFF;" points="78.368,295.805 65.944,274.346 71.479,271.141 79.158,284.405 99.087,258.896 
							104.127,262.833 						"/>
					</g>
				</g>
			</g>
			<g>
				<g>
					<path style="opacity:0.2;fill:#000042;" d="M311.162,300.924H164.078c-1.034,0-1.872,0.838-1.872,1.872v79.944
						c0,1.034,0.838,1.872,1.872,1.872h147.084c1.034,0,1.872-0.838,1.872-1.872v-79.944
						C313.033,301.762,312.195,300.924,311.162,300.924z"/>
					<g>
						<g>
							
								<rect x="158.462" y="299.052" style="fill:#FFB1A4;stroke:#FF4435;stroke-width:3.7439;stroke-linecap:round;stroke-linejoin:round;stroke-miterlimit:10;" width="147.084" height="79.944"/>
							<rect x="158.462" y="299.067" style="fill:#FF4435;" width="147.004" height="10.182"/>
						</g>
						<g>
							<path style="fill:#FFFFFF;" d="M296.574,303.415c0,1.422,1.152,2.574,2.574,2.574c1.422,0,2.574-1.152,2.574-2.574
								c0-1.422-1.152-2.574-2.574-2.574C297.727,300.841,296.574,301.994,296.574,303.415z"/>
							<path style="fill:#FFFFFF;" d="M287.215,303.415c0,1.422,1.152,2.574,2.574,2.574c1.422,0,2.574-1.152,2.574-2.574
								c0-1.422-1.152-2.574-2.574-2.574C288.367,300.841,287.215,301.994,287.215,303.415z"/>
							<path style="fill:#FFFFFF;" d="M277.855,303.415c0,1.422,1.152,2.574,2.574,2.574c1.421,0,2.574-1.152,2.574-2.574
								c0-1.422-1.152-2.574-2.574-2.574C279.007,300.841,277.855,301.994,277.855,303.415z"/>
						</g>
					</g>
				</g>
				<g>
					<path style="opacity:0.2;fill:#000042;" d="M235.816,332.279H125.703c-1.034,0-1.872,0.838-1.872,1.872v65.904
						c0,1.034,0.838,1.872,1.872,1.872h110.113c1.034,0,1.872-0.838,1.872-1.872v-65.904
						C237.688,333.117,236.849,332.279,235.816,332.279z"/>
					<g>
						<g>
							
								<rect x="120.087" y="330.407" style="fill:#FFB1A4;stroke:#FF4435;stroke-width:3.7439;stroke-linecap:round;stroke-linejoin:round;stroke-miterlimit:10;" width="110.113" height="65.904"/>
							<rect x="120.087" y="330.423" style="fill:#FF4435;" width="110.033" height="10.182"/>
						</g>
						<g>
							<path style="fill:#FFFFFF;" d="M221.228,334.771c0,1.422,1.152,2.574,2.574,2.574c1.421,0,2.574-1.152,2.574-2.574
								c0-1.422-1.152-2.574-2.574-2.574C222.381,332.197,221.228,333.349,221.228,334.771z"/>
							<path style="fill:#FFFFFF;" d="M211.869,334.771c0,1.422,1.152,2.574,2.574,2.574c1.421,0,2.574-1.152,2.574-2.574
								c0-1.422-1.152-2.574-2.574-2.574C213.021,332.197,211.869,333.349,211.869,334.771z"/>
							<path style="fill:#FFFFFF;" d="M202.509,334.771c0,1.422,1.152,2.574,2.574,2.574c1.421,0,2.574-1.152,2.574-2.574
								c0-1.422-1.152-2.574-2.574-2.574C203.661,332.197,202.509,333.349,202.509,334.771z"/>
						</g>
					</g>
				</g>
			</g>
		</g>
	</g>
</g>
</svg>
